PathFileType	4	(X/Y/Z)	C:\Users\MAHE\Documents\generic-specific-tibial-stress-mtlb\PublicDataset\P01\Gait\WBDS01static1.trc
DataRate	CameraRate	NumFrames	NumMarkers	Units	OrigDataRate	OrigDataStartFrame	OrigNumFrames
150.000000	150.000000	8	28	mm	150.000000	131	150
Frame#	Time	L.Ankle			L.Ankle.Medial			L.ASIS			L.GTR			L.Heel			L.HF			L.Iliac.Crest			L.Knee			L.Knee.Medial			L.MT1			L.MT2			L.MT5			L.PSIS			L.TT			R.Ankle			R.Ankle.Medial			R.ASIS			R.GTR			R.Heel			R.HF			R.Iliac.Crest			R.Knee			R.Knee.Medial			R.MT1			R.MT2			R.MT5			R.PSIS			R.TT			
		X1	Y1	Z1	X2	Y2	Z2	X3	Y3	Z3	X4	Y4	Z4	X5	Y5	Z5	X6	Y6	Z6	X7	Y7	Z7	X8	Y8	Z8	X9	Y9	Z9	X10	Y10	Z10	X11	Y11	Z11	X12	Y12	Z12	X13	Y13	Z13	X14	Y14	Z14	X15	Y15	Z15	X16	Y16	Z16	X17	Y17	Z17	X18	Y18	Z18	X19	Y19	Z19	X20	Y20	Z20	X21	Y21	Z21	X22	Y22	Z22	X23	Y23	Z23	X24	Y24	Z24	X25	Y25	Z25	X26	Y26	Z26	X27	Y27	Z27	X28	Y28	Z28	

132	0.8733333333333334	691.1786499023438	75.78533172607422	1043.137329101563	710.03662109375	86.90277099609375	1127.862548828125	809.7868041992188	955.13037109375	1085.543579101563	720.4047241210938	879.8937377929688	1040.294067382813	636.01416015625	47.70729446411133	1083.752197265625	702.4151000976563	432.6235961914063	1043.7314453125	723.9113159179688	1032.818237304688	1046.877319335938	722.697021484375	494.8912658691406	1052.799194335938	727.1602783203125	486.2878112792969	1179.309692382813	841.7163696289063	40.625	1102.119506835938	842.0645141601563	35.04724502563477	1073.181274414063	814.8084716796875	28.72969627380371	1021.616638183594	619.9743041992188	1002.811279296875	1193.900512695313	761.930908203125	419.4324951171875	1087.23486328125	689.1334838867188	73.04656982421875	1398.892211914063	706.0708618164063	91.7708740234375	1313.665161132813	813.7802124023438	953.9891357421875	1363.865966796875	709.3088989257813	888.0391845703125	1404.588012695313	637.2857666015625	50.00994110107422	1348.894409179688	712.4013061523438	440.2541198730469	1403.371337890625	732.0902099609375	1032.290893554688	1404.549926757813	729.689208984375	495.7306823730469	1394.881225585938	732.3878173828125	481.3994140625	1270.277954101563	842.8452758789063	42.35786056518555	1341.34033203125	842.8432006835938	36.84051132202148	1365.40283203125	810.2021484375	31.38934326171875	1416.312866210938	622.02197265625	1000.754455566406	1264.063110351563	769.1925048828125	423.1104431152344	1347.572998046875	
133	0.88	691.1821899414063	75.78917694091797	1043.135009765625	710.0414428710938	86.91719818115234	1127.872802734375	809.815185546875	955.1204223632813	1085.576171875	720.4542846679688	879.8941040039063	1040.330810546875	636.016357421875	47.71374893188477	1083.761108398438	702.43505859375	432.6344604492188	1043.754028320313	723.9425048828125	1032.8037109375	1046.947021484375	722.72509765625	494.906494140625	1052.820190429688	727.1744384765625	486.3000793457031	1179.35302734375	841.710693359375	40.63895797729492	1102.129150390625	842.068359375	35.05688095092773	1073.188110351563	814.8092651367188	28.7306957244873	1021.621765136719	620.0040893554688	1002.81494140625	1193.949340820313	761.9502563476563	419.434326171875	1087.253662109375	689.1276245117188	73.04444885253906	1398.902465820313	706.0741577148438	91.76480865478516	1313.672973632813	813.82080078125	954.0065307617188	1363.905517578125	709.3516845703125	888.041015625	1404.61669921875	637.2833862304688	50.01699066162109	1348.897216796875	712.4238891601563	440.2620849609375	1403.408813476563	732.1409912109375	1032.299194335938	1404.584594726563	729.7022094726563	495.7246704101563	1394.919921875	732.3978271484375	481.403564453125	1270.2978515625	842.8450927734375	42.35587692260742	1341.338623046875	842.8486938476563	36.8427619934082	1365.412353515625	810.2075805664063	31.39038276672363	1416.312377929688	622.0556030273438	1000.764099121094	1264.107666015625	769.1944580078125	423.1083068847656	1347.589599609375	
134	0.8866666666666667	691.1724243164063	75.77908325195313	1043.153564453125	710.0338745117188	86.9066162109375	1127.876342773438	809.8617553710938	955.111083984375	1085.63623046875	720.4832153320313	879.8944091796875	1040.371459960938	636.0149536132813	47.7072639465332	1083.760620117188	702.457275390625	432.6355590820313	1043.793823242188	723.968994140625	1032.796020507813	1047.021362304688	722.73779296875	494.9084777832031	1052.84521484375	727.188720703125	486.2847595214844	1179.36328125	841.7118530273438	40.62394714355469	1102.125610351563	842.0648803710938	35.05197906494141	1073.195556640625	814.8113403320313	28.73714065551758	1021.625	620.0313720703125	1002.809020996094	1194.003784179688	761.96728515625	419.4381103515625	1087.276489257813	689.1301879882813	73.0386962890625	1398.902221679688	706.0721435546875	91.75926971435547	1313.685791015625	813.8603515625	954.0201416015625	1363.931762695313	709.3797607421875	888.0399169921875	1404.650268554688	637.2932739257813	50.01041412353516	1348.904541015625	712.4296875	440.2581481933594	1403.43359375	732.17919921875	1032.328857421875	1404.625610351563	729.71826171875	495.7172546386719	1394.934204101563	732.4060668945313	481.4085388183594	1270.317504882813	842.8466796875	42.35318374633789	1341.348876953125	842.8426513671875	36.84229278564453	1365.410766601563	810.20361328125	31.38080024719238	1416.309204101563	622.0817260742188	1000.754455566406	1264.159790039063	769.21142578125	423.0979919433594	1347.629150390625	
135	0.8933333333333334	691.1729736328125	75.79639434814453	1043.1591796875	710.0364379882813	86.9034423828125	1127.880737304688	809.8714599609375	955.0962524414063	1085.676025390625	720.51318359375	879.8892822265625	1040.416625976563	636.0209350585938	47.70145797729492	1083.758056640625	702.470947265625	432.6402893066406	1043.8203125	723.981689453125	1032.78662109375	1047.079833984375	722.7640991210938	494.9223327636719	1052.872680664063	727.2147827148438	486.3155517578125	1179.405151367188	841.7160034179688	40.62301254272461	1102.13232421875	842.0614013671875	35.05088806152344	1073.194091796875	814.8094482421875	28.73116874694824	1021.623107910156	620.0558471679688	1002.796813964844	1194.056396484375	761.98388671875	419.4339294433594	1087.295776367188	689.1181640625	73.03339385986328	1398.916625976563	706.0364379882813	91.74948883056641	1313.69775390625	813.8878784179688	954.0306396484375	1363.974609375	709.4185791015625	888.0401000976563	1404.69775390625	637.2860717773438	50.02245712280273	1348.9052734375	712.4398193359375	440.2569885253906	1403.4599609375	732.2161865234375	1032.323852539063	1404.671142578125	729.7237548828125	495.7236022949219	1394.9775390625	732.413330078125	481.4166870117188	1270.347045898438	842.8447875976563	42.35129928588867	1341.347045898438	842.8388061523438	36.84117889404297	1365.41357421875	810.20068359375	31.38724136352539	1416.3115234375	622.1111450195313	1000.741577148438	1264.213623046875	769.21240234375	423.0908203125	1347.650756835938	
136	0.9	691.1781616210938	75.78827667236328	1043.161743164063	710.0404052734375	86.90090179443359	1127.879760742188	809.9124145507813	955.080078125	1085.707885742188	720.5493774414063	879.8904418945313	1040.463623046875	636.0242919921875	47.71306610107422	1083.762329101563	702.4863891601563	432.6417846679688	1043.845825195313	723.998046875	1032.778198242188	1047.138427734375	722.7763061523438	494.9120178222656	1052.895141601563	727.236083984375	486.3103332519531	1179.427856445313	841.71630859375	40.6268196105957	1102.13525390625	842.067626953125	35.04902267456055	1073.198486328125	814.811279296875	28.73159027099609	1021.614379882813	620.0746459960938	1002.789306640625	1194.111206054688	762.0044555664063	419.4321899414063	1087.31591796875	689.134521484375	73.04266357421875	1398.923583984375	706.0404052734375	91.74629211425781	1313.699340820313	813.9133911132813	954.0346069335938	1364.021118164063	709.4529418945313	888.0364379882813	1404.749145507813	637.28955078125	50.02130508422852	1348.897094726563	712.46044921875	440.2449645996094	1403.475830078125	732.2620239257813	1032.336791992188	1404.709350585938	729.72900390625	495.7260131835938	1395.008544921875	732.4237060546875	481.4098510742188	1270.376953125	842.848876953125	42.34706497192383	1341.35009765625	842.8463745117188	36.83758544921875	1365.417724609375	810.20556640625	31.39046478271484	1416.3251953125	622.1416625976563	1000.727111816406	1264.24951171875	769.2265625	423.0998229980469	1347.681762695313	
137	0.9066666666666667	691.1755981445313	75.79560852050781	1043.16259765625	710.042724609375	86.89415740966797	1127.894165039063	809.9470825195313	955.0635986328125	1085.743041992188	720.5777587890625	879.8944091796875	1040.508666992188	636.019287109375	47.71147537231445	1083.766723632813	702.501220703125	432.6510925292969	1043.866455078125	724.0127563476563	1032.775512695313	1047.20947265625	722.7935180664063	494.9213562011719	1052.927856445313	727.2442016601563	486.3165893554688	1179.453491210938	841.71484375	40.62161254882813	1102.132934570313	842.0659790039063	35.05027008056641	1073.193115234375	814.81298828125	28.72798728942871	1021.62548828125	620.09619140625	1002.784423828125	1194.181396484375	762.0238037109375	419.4293212890625	1087.35400390625	689.1273803710938	73.02930450439453	1398.924194335938	706.0410766601563	91.75450897216797	1313.703491210938	813.9489135742188	954.027587890625	1364.0634765625	709.489990234375	888.0352783203125	1404.802612304688	637.288330078125	50.02191162109375	1348.905883789063	712.46533203125	440.2557067871094	1403.504272460938	732.2958374023438	1032.33984375	1404.755126953125	729.7445678710938	495.7171020507813	1395.036987304688	732.4187622070313	481.4297485351563	1270.412841796875	842.845703125	42.34515762329102	1341.352416992188	842.8456420898438	36.833984375	1365.422729492188	810.2119750976563	31.39102363586426	1416.311279296875	622.1646728515625	1000.721069335938	1264.300415039063	769.2422485351563	423.1035461425781	1347.703491210938	
138	0.9133333333333334	691.1759643554688	75.79561614990234	1043.17724609375	710.0385131835938	86.89987945556641	1127.902099609375	809.9615478515625	955.0543823242188	1085.789184570313	720.6019287109375	879.8897094726563	1040.563110351563	636.0276489257813	47.70414733886719	1083.779907226563	702.5027465820313	432.6448364257813	1043.9033203125	724.0117797851563	1032.758544921875	1047.271240234375	722.8056640625	494.9133911132813	1052.956298828125	727.2719116210938	486.3226623535156	1179.498657226563	841.7272338867188	40.62523651123047	1102.132690429688	842.06884765625	35.0465202331543	1073.204833984375	814.8169555664063	28.73647499084473	1021.622863769531	620.1187133789063	1002.776123046875	1194.239135742188	762.0481567382813	419.4362182617188	1087.379516601563	689.1253051757813	73.02975463867188	1398.923950195313	706.0352172851563	91.75650024414063	1313.7109375	813.97509765625	954.0236206054688	1364.120849609375	709.5267944335938	888.0377807617188	1404.849731445313	637.297119140625	50.02072906494141	1348.915283203125	712.4720458984375	440.2530212402344	1403.527709960938	732.322509765625	1032.360229492188	1404.792846679688	729.7595825195313	495.7069396972656	1395.05224609375	732.4274291992188	481.43310546875	1270.421997070313	842.8529052734375	42.33636856079102	1341.346435546875	842.8458251953125	36.83172988891602	1365.413452148438	810.2060546875	31.38409805297852	1416.318115234375	622.1895141601563	1000.718322753906	1264.347412109375	769.2536010742188	423.0960388183594	1347.73583984375	
139	0.92	691.173095703125	75.80032348632813	1043.177368164063	710.0460205078125	86.88838195800781	1127.900634765625	810.0012817382813	955.0421142578125	1085.824829101563	720.6100463867188	879.8902587890625	1040.6171875	636.0249633789063	47.70449829101563	1083.782104492188	702.5078735351563	432.6426086425781	1043.92626953125	724.0040283203125	1032.746826171875	1047.3154296875	722.8029174804688	494.9272766113281	1052.974487304688	727.2911987304688	486.3309326171875	1179.522338867188	841.718994140625	40.62015914916992	1102.130981445313	842.0701293945313	35.04898834228516	1073.194091796875	814.807373046875	28.7402515411377	1021.622131347656	620.1315307617188	1002.772521972656	1194.298828125	762.048583984375	419.4302673339844	1087.391479492188	689.1201171875	73.02908325195313	1398.9248046875	706.0571899414063	91.75939178466797	1313.728271484375	814.0095825195313	954.0104370117188	1364.171264648438	709.56005859375	888.03955078125	1404.901489257813	637.2952270507813	50.02180099487305	1348.91357421875	712.4756469726563	440.2640686035156	1403.545532226563	732.3514404296875	1032.36083984375	1404.840942382813	729.7723388671875	495.714111328125	1395.081420898438	732.424072265625	481.4303894042969	1270.462036132813	842.845947265625	42.34199142456055	1341.351196289063	842.8404541015625	36.82920837402344	1365.416137695313	810.2124633789063	31.38864326477051	1416.318237304688	622.2141723632813	1000.716735839844	1264.403564453125	769.2615966796875	423.1030578613281	1347.757080078125	
